<svg width="35" height="35" viewBox="0 0 35 35" fill="none" xmlns="http://www.w3.org/2000/svg">
<circle cx="17.5" cy="17.5" r="17.5" fill="black" fill-opacity="0.25"/>
<path d="M17.5 23.25C20.6756 23.25 23.25 20.6756 23.25 17.5C23.25 14.3244 20.6756 11.75 17.5 11.75C14.3244 11.75 11.75 14.3244 11.75 17.5C11.75 20.6756 14.3244 23.25 17.5 23.25Z" fill="black" fill-opacity="0.25"/>
<path d="M17.5 21.3333C19.6171 21.3333 21.3333 19.6171 21.3333 17.5C21.3333 15.3829 19.6171 13.6667 17.5 13.6667C15.3829 13.6667 13.6667 15.3829 13.6667 17.5C13.6667 19.6171 15.3829 21.3333 17.5 21.3333Z" fill="black" fill-opacity="0.25"/>
<path d="M17.5 29C23.8513 29 29 23.8513 29 17.5C29 11.1487 23.8513 6 17.5 6C11.1487 6 6 11.1487 6 17.5C6 23.8513 11.1487 29 17.5 29Z" fill="black" fill-opacity="0.25"/>
<path d="M17.5 18.9375C18.2939 18.9375 18.9375 18.2939 18.9375 17.5C18.9375 16.7061 18.2939 16.0625 17.5 16.0625C16.7061 16.0625 16.0625 16.7061 16.0625 17.5C16.0625 18.2939 16.7061 18.9375 17.5 18.9375Z" fill="black" fill-opacity="0.25"/>
<path d="M15.0476 11.4983C13.1714 10.4615 10.7067 10.7067 9.36828 9.36828C10.6663 10.6663 10.6879 13.2353 11.5231 14.9899C11.8077 14.9079 12.1018 14.851 12.4074 14.8282C12.9512 13.796 13.7989 12.9475 14.8331 12.405C14.8642 12.1028 14.9403 11.8006 15.0476 11.4983Z" fill="black" fill-opacity="0.25"/>
<path d="M17.5048 6C17.5048 7.83559 19.3069 9.66714 19.9572 11.4984C20.0645 11.8006 20.1405 12.1028 20.1718 12.405C19.9633 12.2957 19.7483 12.1993 19.5279 12.1164C18.8985 11.8798 18.2169 11.75 17.5048 11.75C16.5402 11.75 15.6313 11.9879 14.833 12.4076C15.0213 9.89033 17.5048 8.15477 17.5048 6ZM11.4983 19.9524C10.4615 21.8286 10.7067 24.2933 9.36828 25.6317C10.6663 24.3337 13.2353 24.3121 14.9899 23.4769C14.9079 23.1923 14.851 22.8982 14.8282 22.5926C13.796 22.0488 12.9475 21.2011 12.405 20.1669C12.1028 20.1357 11.8006 20.0597 11.4983 19.9524Z" fill="black" fill-opacity="0.25"/>
<path d="M6 17.5C7.83549 17.5 9.66714 19.3021 11.4983 19.9524C11.8006 20.0598 12.1028 20.1357 12.405 20.167C12.2962 19.9595 12.1997 19.7446 12.1164 19.5232C11.8798 18.8938 11.75 18.2121 11.75 17.5C11.75 16.5355 11.9878 15.6266 12.4076 14.8282C9.89033 15.0165 8.15477 17.5 6 17.5ZM19.9524 23.5017C21.8286 24.5385 24.2933 24.2933 25.6317 25.6317C24.3337 24.3337 24.3121 21.7647 23.4769 20.0101C23.1923 20.0921 22.8982 20.149 22.5926 20.1718C22.0488 21.204 21.2011 22.0525 20.1669 22.595C20.1357 22.8972 20.0597 23.1994 19.9524 23.5017Z" fill="black" fill-opacity="0.25"/>
<path d="M17.5 29C17.5 27.1644 19.3021 25.3329 19.9524 23.5016C20.0598 23.1994 20.1357 22.8972 20.167 22.595C19.9595 22.7038 19.7446 22.8003 19.5232 22.8836C18.8938 23.1202 18.2121 23.25 17.5 23.25C16.5355 23.25 15.6266 23.0121 14.8282 22.5924C15.0165 25.1097 17.5 26.8452 17.5 29ZM23.5017 15.0476C24.5385 13.1714 24.2933 10.7067 25.6317 9.36828C24.3337 10.6663 21.7647 10.6879 20.0101 11.5231C20.0921 11.8077 20.149 12.1018 20.1718 12.4074C21.204 12.9512 22.0525 13.7989 22.595 14.8331C22.8972 14.8643 23.1994 14.9403 23.5017 15.0476Z" fill="black" fill-opacity="0.25"/>
<path d="M29 17.5C27.1645 17.5 25.3329 15.6979 23.5017 15.0476C23.1994 14.9403 22.8972 14.8643 22.595 14.833C22.7038 15.0405 22.8003 15.2554 22.8836 15.4768C23.1202 16.1062 23.25 16.7879 23.25 17.5C23.25 18.4645 23.0121 19.3734 22.5924 20.1718C25.1096 19.9835 26.8452 17.5 29 17.5Z" fill="black" fill-opacity="0.25"/>
<path d="M29 17.5C29 23.8513 23.8513 29 17.5 29M29 17.5C29 11.1487 23.8513 6 17.5 6C11.1487 6 6 11.1487 6 17.5M29 17.5C27.1645 17.5 25.3329 15.6979 23.5017 15.0476M29 17.5C26.8452 17.5 25.1096 19.9835 22.5924 20.1718C23.0121 19.3734 23.25 18.4645 23.25 17.5C23.25 16.7879 23.1202 16.1062 22.8836 15.4768C22.8003 15.2554 22.7038 15.0405 22.595 14.833C22.8972 14.8643 23.1994 14.9403 23.5017 15.0476M17.5 29C11.1487 29 6 23.8513 6 17.5M17.5 29C17.5 27.1644 19.3021 25.3329 19.9524 23.5016C20.0598 23.1994 20.1357 22.8972 20.167 22.595C19.9595 22.7038 19.7446 22.8003 19.5232 22.8836C18.8938 23.1202 18.2121 23.25 17.5 23.25C16.5355 23.25 15.6266 23.0121 14.8282 22.5924C15.0165 25.1097 17.5 26.8452 17.5 29ZM6 17.5C7.83549 17.5 9.66714 19.3021 11.4983 19.9524M6 17.5C8.15477 17.5 9.89033 15.0165 12.4076 14.8282C11.9878 15.6266 11.75 16.5355 11.75 17.5C11.75 18.2121 11.8798 18.8938 12.1164 19.5232C12.1997 19.7446 12.2962 19.9595 12.405 20.167C12.1028 20.1357 11.8006 20.0598 11.4983 19.9524M11.4983 19.9524C10.4615 21.8286 10.7067 24.2933 9.36828 25.6317C10.6663 24.3337 13.2353 24.3121 14.9899 23.4769C14.9079 23.1923 14.851 22.8982 14.8282 22.5926C13.796 22.0488 12.9475 21.2011 12.405 20.1669C12.1028 20.1357 11.8006 20.0597 11.4983 19.9524ZM23.5017 15.0476C24.5385 13.1714 24.2933 10.7067 25.6317 9.36828C24.3337 10.6663 21.7647 10.6879 20.0101 11.5231C20.0921 11.8077 20.149 12.1018 20.1718 12.4074C21.204 12.9512 22.0525 13.7989 22.595 14.8331C22.8972 14.8643 23.1994 14.9403 23.5017 15.0476ZM23.25 17.5C23.25 20.6756 20.6756 23.25 17.5 23.25C14.3244 23.25 11.75 20.6756 11.75 17.5C11.75 14.3244 14.3244 11.75 17.5 11.75C20.6756 11.75 23.25 14.3244 23.25 17.5ZM21.3333 17.5C21.3333 19.6171 19.6171 21.3333 17.5 21.3333C15.3829 21.3333 13.6667 19.6171 13.6667 17.5C13.6667 15.3829 15.3829 13.6667 17.5 13.6667C19.6171 13.6667 21.3333 15.3829 21.3333 17.5ZM18.9375 17.5C18.9375 18.2939 18.2939 18.9375 17.5 18.9375C16.7061 18.9375 16.0625 18.2939 16.0625 17.5C16.0625 16.7061 16.7061 16.0625 17.5 16.0625C18.2939 16.0625 18.9375 16.7061 18.9375 17.5ZM15.0476 11.4983C13.1714 10.4615 10.7067 10.7067 9.36828 9.36828C10.6663 10.6663 10.6879 13.2353 11.5231 14.9899C11.8077 14.9079 12.1018 14.851 12.4074 14.8282C12.9512 13.796 13.7989 12.9475 14.8331 12.405C14.8642 12.1028 14.9403 11.8006 15.0476 11.4983ZM17.5048 6C17.5048 7.83559 19.3069 9.66714 19.9572 11.4984C20.0645 11.8006 20.1405 12.1028 20.1718 12.405C19.9633 12.2957 19.7483 12.1993 19.5279 12.1164C18.8985 11.8798 18.2169 11.75 17.5048 11.75C16.5402 11.75 15.6313 11.9879 14.833 12.4076C15.0213 9.89033 17.5048 8.15477 17.5048 6ZM19.9524 23.5017C21.8286 24.5385 24.2933 24.2933 25.6317 25.6317C24.3337 24.3337 24.3121 21.7647 23.4769 20.0101C23.1923 20.0921 22.8982 20.149 22.5926 20.1718C22.0488 21.204 21.2011 22.0525 20.1669 22.595C20.1357 22.8972 20.0597 23.1994 19.9524 23.5017Z" stroke="white" stroke-miterlimit="10" stroke-linecap="round" stroke-linejoin="round"/>
</svg>
