<svg width="35" height="35" viewBox="0 0 35 35" fill="none" xmlns="http://www.w3.org/2000/svg">
<circle cx="17.5" cy="17.5" r="17.5" fill="black" fill-opacity="0.35"/>
<path d="M17.5 17.5C15.5833 15.5834 14.625 13.6667 14.625 11.75C14.625 11.1587 14.7162 10.5674 14.8986 9.97642C13.5294 8.72612 11.4085 8.76596 10.0874 10.0871C8.76635 11.4082 8.72645 13.5291 9.9769 14.8984C10.5678 14.7161 11.1589 14.625 11.75 14.625C13.6667 14.625 15.5833 15.5834 17.5 17.5ZM17.5 17.5C15.5833 19.4166 14.625 21.3333 14.625 23.25C14.625 23.8413 14.7162 24.4326 14.8986 25.0236C13.5294 26.2738 11.4085 26.234 10.0874 24.9129C8.76635 23.5918 8.72645 21.4709 9.9769 20.1016C10.5678 20.2839 11.1589 20.375 11.75 20.375C13.6667 20.375 15.5833 19.4166 17.5 17.5ZM17.5 17.5C13.6667 13.6667 13.6667 9.83332 17.5 6C21.3333 9.83332 21.3333 13.6667 17.5 17.5ZM17.5 17.5C13.6667 21.3333 13.6667 25.1667 17.5 29C21.3333 25.1667 21.3333 21.3333 17.5 17.5ZM17.5 17.5C21.3333 13.6667 25.1667 13.6667 29 17.5C25.1667 21.3333 21.3333 21.3333 17.5 17.5ZM17.5 17.5C13.6667 13.6667 9.83332 13.6667 6 17.5C9.83332 21.3333 13.6667 21.3333 17.5 17.5ZM17.5003 17.5C19.417 15.5834 20.3753 13.6667 20.3753 11.75C20.3753 11.1587 20.2841 10.5674 20.1017 9.97642C21.4709 8.72612 23.5918 8.76596 24.913 10.0871C26.234 11.4082 26.2739 13.5291 25.0234 14.8984C24.4325 14.7161 23.8414 14.625 23.2503 14.625C21.3337 14.625 19.417 15.5834 17.5003 17.5ZM17.5003 17.5C19.417 19.4166 20.3753 21.3333 20.3753 23.25C20.3753 23.8413 20.2841 24.4326 20.1017 25.0236C21.4709 26.2738 23.5918 26.234 24.913 24.9129C26.234 23.5918 26.2739 21.4709 25.0234 20.1016C24.4325 20.2839 23.8414 20.375 23.2503 20.375C21.3337 20.375 19.417 19.4166 17.5003 17.5Z" stroke="white" stroke-miterlimit="10" stroke-linecap="round" stroke-linejoin="round"/>
</svg>
