<svg width="35" height="35" viewBox="0 0 35 35" fill="none" xmlns="http://www.w3.org/2000/svg">
<circle cx="17.5" cy="17.5" r="17.5" fill="black" fill-opacity="0.35"/>
<path d="M17.5 29C15.6271 27.243 9.9946 21.8478 7.66282 18.3675C6.52685 16.672 6 15.0535 6 13.2537C6 9.24756 8.94844 6 12.5855 6C14.5404 6 16.2939 6.94066 17.5 8.43073C18.706 6.94066 20.4596 6 22.4145 6C26.0516 6 29 9.24756 29 13.2537C29 15.0535 28.4731 16.672 27.3372 18.3675C25.0054 21.8478 19.3729 27.2431 17.5 29ZM17.5 29V23.4916H17.0884C15.9518 23.4916 15.0304 22.4768 15.0304 21.2249C15.0304 19.9729 15.9518 18.9581 17.0884 18.9581H17.5V15.3061H17.9116C19.0482 15.3061 19.9696 14.2912 19.9696 13.0393C19.9696 11.7873 19.0482 10.7725 17.9116 10.7725H17.5V8.03926" stroke="white" stroke-miterlimit="10"/>
</svg>
