<svg width="35" height="35" viewBox="0 0 35 35" fill="none" xmlns="http://www.w3.org/2000/svg">
<circle cx="17.5" cy="17.5" r="17.5" fill="black" fill-opacity="0.35"/>
<path d="M9.55035 28.7813C9.42958 29.0297 9.53299 29.3289 9.78132 29.4496C10.0297 29.5704 10.3289 29.467 10.4496 29.2187L9.55035 28.7813ZM12.5382 24.9241C12.659 24.6757 12.5556 24.3765 12.3073 24.2557C12.0589 24.135 11.7597 24.2384 11.639 24.4867L12.5382 24.9241ZM23.361 24.4867C23.2403 24.2384 22.9411 24.135 22.6927 24.2557C22.4444 24.3765 22.341 24.6757 22.4618 24.9241L23.361 24.4867ZM24.5504 29.2187C24.6711 29.467 24.9703 29.5704 25.2187 29.4496C25.467 29.3289 25.5704 29.0297 25.4496 28.7813L24.5504 29.2187ZM8.5 28.5C8.22386 28.5 8 28.7239 8 29C8 29.2761 8.22386 29.5 8.5 29.5V28.5ZM26.5 29.5C26.7761 29.5 27 29.2761 27 29C27 28.7239 26.7761 28.5 26.5 28.5V29.5ZM11.5 15.5685C11.2239 15.5685 11 15.7923 11 16.0685C11 16.3446 11.2239 16.5685 11.5 16.5685V15.5685ZM13.6958 17.0484L13.3173 17.375L13.3173 17.3751L13.6958 17.0484ZM21.3043 17.0484L21.6827 17.3751L21.6827 17.3751L21.3043 17.0484ZM23.5 16.5685C23.7761 16.5685 24 16.3446 24 16.0685C24 15.7923 23.7761 15.5685 23.5 15.5685V16.5685ZM14.1778 9.61092C14.0349 9.37465 13.7275 9.29898 13.4912 9.44192C13.2549 9.58485 13.1793 9.89226 13.3222 10.1285L14.1778 9.61092ZM14.0722 11.3683C14.2151 11.6046 14.5225 11.6802 14.7588 11.5373C14.9951 11.3944 15.0707 11.0869 14.9278 10.8507L14.0722 11.3683ZM20.9278 20.7686C20.7849 20.5324 20.4775 20.4567 20.2412 20.5996C20.0049 20.7426 19.9293 21.05 20.0722 21.2863L20.9278 20.7686ZM20.8222 22.526C20.9651 22.7623 21.2725 22.8379 21.5088 22.695C21.7451 22.5521 21.8207 22.2447 21.6778 22.0084L20.8222 22.526ZM11.2461 12.0517C11.0042 11.9184 10.7001 12.0065 10.5669 12.2483C10.4336 12.4902 10.5216 12.7943 10.7635 12.9276L11.2461 12.0517ZM12.0626 13.6433C12.3044 13.7766 12.6085 13.6885 12.7418 13.4467C12.875 13.2048 12.787 12.9007 12.5451 12.7675L12.0626 13.6433ZM22.9374 18.4936C22.6956 18.3603 22.3915 18.4484 22.2582 18.6902C22.125 18.9321 22.213 19.2362 22.4549 19.3695L22.9374 18.4936ZM23.7539 20.0852C23.9958 20.2185 24.2999 20.1305 24.4331 19.8886C24.5664 19.6467 24.4784 19.3426 24.2365 19.2094L23.7539 20.0852ZM21.6778 10.1285C21.8207 9.89226 21.7451 9.58485 21.5088 9.44192C21.2725 9.29898 20.9651 9.37465 20.8222 9.61092L21.6778 10.1285ZM20.0722 10.8507C19.9293 11.0869 20.0049 11.3944 20.2412 11.5373C20.4775 11.6802 20.7849 11.6046 20.9278 11.3683L20.0722 10.8507ZM14.9278 21.2863C15.0707 21.05 14.9951 20.7426 14.7588 20.5996C14.5225 20.4567 14.2151 20.5324 14.0722 20.7686L14.9278 21.2863ZM13.3222 22.0084C13.1793 22.2447 13.2549 22.5521 13.4912 22.695C13.7275 22.8379 14.0349 22.7623 14.1778 22.526L13.3222 22.0084ZM24.2365 12.9276C24.4784 12.7943 24.5664 12.4902 24.4331 12.2483C24.2999 12.0065 23.9958 11.9184 23.7539 12.0517L24.2365 12.9276ZM22.4549 12.7675C22.213 12.9007 22.125 13.2048 22.2582 13.4467C22.3915 13.6885 22.6956 13.7766 22.9374 13.6433L22.4549 12.7675ZM12.5451 19.3695C12.787 19.2362 12.875 18.9321 12.7418 18.6902C12.6085 18.4484 12.3044 18.3603 12.0626 18.4936L12.5451 19.3695ZM10.7635 19.2094C10.5216 19.3426 10.4336 19.6467 10.5669 19.8886C10.7001 20.1305 11.0042 20.2185 11.2461 20.0852L10.7635 19.2094ZM18 8.91079C18 8.63465 17.7761 8.41079 17.5 8.41079C17.2239 8.41079 17 8.63465 17 8.91079H18ZM17 10.3423C17 10.6185 17.2239 10.8423 17.5 10.8423C17.7761 10.8423 18 10.6185 18 10.3423H17ZM18 21.7946C18 21.5185 17.7761 21.2946 17.5 21.2946C17.2239 21.2946 17 21.5185 17 21.7946H18ZM17 23.2739C17 23.55 17.2239 23.7739 17.5 23.7739C17.7761 23.7739 18 23.55 18 23.2739H17ZM13.6958 15.0886L13.3173 14.7618L13.3173 14.7619L13.6958 15.0886ZM21.3043 15.0886L21.6827 14.7618L21.6827 14.7618L21.3043 15.0886ZM10.4496 29.2187L12.5382 24.9241L11.639 24.4867L9.55035 28.7813L10.4496 29.2187ZM22.4618 24.9241L24.5504 29.2187L25.4496 28.7813L23.361 24.4867L22.4618 24.9241ZM8.5 29.5H26.5V28.5H8.5V29.5ZM11.5 16.5685H11.5207V15.5685H11.5V16.5685ZM11.5206 16.5685C11.8662 16.5686 12.2069 16.6417 12.5179 16.7818L12.9286 15.87C12.4875 15.6713 12.0068 15.5686 11.5208 15.5685L11.5206 16.5685ZM12.5179 16.7818C12.8288 16.9219 13.1015 17.125 13.3173 17.375L14.0743 16.7217C13.7614 16.3591 13.3698 16.0688 12.9286 15.87L12.5179 16.7818ZM13.3173 17.3751C14.0775 18.2556 15.4716 19.4315 17.5 19.4315V18.4315C15.8877 18.4315 14.7456 17.4992 14.0743 16.7216L13.3173 17.3751ZM17.5 19.4315C19.5284 19.4315 20.9225 18.2556 21.6827 17.3751L20.9258 16.7216C20.2545 17.4992 19.1123 18.4315 17.5 18.4315V19.4315ZM21.6827 17.3751C22.1197 16.869 22.7793 16.5685 23.4793 16.5685V15.5685C22.4974 15.5685 21.5583 15.989 20.9258 16.7216L21.6827 17.3751ZM23.4793 16.5685H23.5V15.5685H23.4793V16.5685ZM17.75 16.0685C17.75 16.1659 17.6603 16.2842 17.5 16.2842V17.2842C18.1681 17.2842 18.75 16.7617 18.75 16.0685H17.75ZM17.5 16.2842C17.3397 16.2842 17.25 16.1659 17.25 16.0685H16.25C16.25 16.7617 16.8319 17.2842 17.5 17.2842V16.2842ZM17.25 16.0685C17.25 15.9711 17.3397 15.8527 17.5 15.8527V14.8527C16.8319 14.8527 16.25 15.3753 16.25 16.0685H17.25ZM17.5 15.8527C17.6603 15.8527 17.75 15.9711 17.75 16.0685H18.75C18.75 15.3753 18.1681 14.8527 17.5 14.8527V15.8527ZM13.3222 10.1285L14.0722 11.3683L14.9278 10.8507L14.1778 9.61092L13.3222 10.1285ZM20.0722 21.2863L20.8222 22.526L21.6778 22.0084L20.9278 20.7686L20.0722 21.2863ZM10.7635 12.9276L12.0626 13.6433L12.5451 12.7675L11.2461 12.0517L10.7635 12.9276ZM22.4549 19.3695L23.7539 20.0852L24.2365 19.2094L22.9374 18.4936L22.4549 19.3695ZM20.8222 9.61092L20.0722 10.8507L20.9278 11.3683L21.6778 10.1285L20.8222 9.61092ZM14.0722 20.7686L13.3222 22.0084L14.1778 22.526L14.9278 21.2863L14.0722 20.7686ZM23.7539 12.0517L22.4549 12.7675L22.9374 13.6433L24.2365 12.9276L23.7539 12.0517ZM12.0626 18.4936L10.7635 19.2094L11.2461 20.0852L12.5451 19.3695L12.0626 18.4936ZM17 8.91079V10.3423H18V8.91079H17ZM17 21.7946V23.2739H18V21.7946H17ZM28.5 16.0685C28.5 10.2393 23.556 5.5 17.5 5.5V6.5C23.0419 6.5 27.5 10.829 27.5 16.0685H28.5ZM17.5 5.5C11.444 5.5 6.5 10.2393 6.5 16.0685H7.5C7.5 10.829 11.958 6.5 17.5 6.5V5.5ZM6.5 16.0685C6.5 21.8977 11.444 26.6369 17.5 26.6369V25.6369C11.958 25.6369 7.5 21.3079 7.5 16.0685H6.5ZM17.5 26.6369C23.556 26.6369 28.5 21.8977 28.5 16.0685H27.5C27.5 21.3079 23.0419 25.6369 17.5 25.6369V26.6369ZM11.5208 16.5685C12.0068 16.5683 12.4875 16.4656 12.9286 16.2669L12.5179 15.3552C12.2069 15.4952 11.8662 15.5684 11.5206 15.5685L11.5208 16.5685ZM12.9286 16.2669C13.3698 16.0682 13.7614 15.7778 14.0743 15.4153L13.3173 14.7619C13.1015 15.012 12.8288 15.2151 12.5179 15.3552L12.9286 16.2669ZM14.0743 15.4153C14.7456 14.6378 15.8877 13.7054 17.5 13.7054V12.7054C15.4716 12.7054 14.0775 13.8813 13.3173 14.7618L14.0743 15.4153ZM17.5 13.7054C19.1123 13.7054 20.2545 14.6378 20.9258 15.4153L21.6827 14.7618C20.9225 13.8813 19.5284 12.7054 17.5 12.7054V13.7054ZM20.9258 15.4153C21.5583 16.148 22.4974 16.5685 23.4793 16.5685V15.5685C22.7793 15.5685 22.1197 15.2679 21.6827 14.7618L20.9258 15.4153Z" fill="white"/>
</svg>
