<svg width="35" height="35" viewBox="0 0 35 35" fill="none" xmlns="http://www.w3.org/2000/svg">
<circle cx="17.5" cy="17.5" r="17.5" fill="black" fill-opacity="0.35"/>
<path d="M20.5539 26.677V26.7573C20.5539 27.5479 19.913 28.1888 19.1224 28.1888H7.43154C6.6409 28.1888 6 27.5479 6 26.7573V7.43154C6 6.6409 6.6409 6 7.43154 6H19.1224C19.913 6 20.5539 6.6409 20.5539 7.43154V18.1609M8.71992 15.1029V10.2469C9.56309 10.2469 10.2469 9.56309 10.2469 8.71992H16.3548C16.3548 9.56309 17.0386 10.2469 17.8817 10.2469V15.1354M17.8817 23.8627V23.9896C17.0386 23.9896 16.3548 24.6734 16.3548 25.5166H10.2469C10.2469 24.6734 9.56309 23.9896 8.71992 23.9896V19.1965M6.18882 15.2095H20.3742M18.1569 19.027H6.18882M13.3008 11.7739V12.5373M13.3008 21.6992V22.4627M29 22.4627L22.8444 29M29 22.4627L27.0436 18.2635M29 22.4627H16.7365M22.8444 29L16.7365 22.4627M22.8444 29L24.7531 22.0809M22.8444 29L20.9357 22.0809M16.7365 22.4627L18.6452 18.2635M18.6452 18.2635H27.0436M18.6452 18.2635L20.9357 22.0809M27.0436 18.2635L24.7531 22.0809M24.7531 22.0809L22.8444 18.2635L20.9357 22.0809M26.2801 12.9191V15.2095M25.1349 14.0643H27.4253" stroke="white" stroke-miterlimit="10" stroke-linecap="round" stroke-linejoin="round"/>
</svg>
