<svg width="70" height="62" viewBox="0 0 70 62" fill="none" xmlns="http://www.w3.org/2000/svg">
<path d="M21.2556 42.0981L24.173 39.1808M46.1127 42.0981L49.0301 39.1808M54.3984 42.0981L57.3158 39.1808M12.9699 42.0981L15.8873 39.1808M61.3752 51.714L63.557 26.8142M61.3752 51.714C63.6633 51.714 65.5181 53.5689 65.5181 55.857C65.5181 58.1452 63.6633 60 61.3752 60H8.91049C6.6224 60 4.76763 58.1452 4.76763 55.857C4.76763 53.5689 6.6224 51.714 8.91049 51.714M61.3752 51.714H8.91049M6.7287 26.8142L8.91049 51.714M33.2902 9.84842L22.7143 31.0007L9.84812 24.5664M60.4376 24.5664L47.5714 31.0007L36.9956 9.84842M41.653 19.1636L41.6573 19.1613C46.2761 16.6428 52.0577 18.7242 54.0116 23.6088L55.4019 27.0847M14.8898 27.0877L16.2769 23.6152C18.229 18.7279 24.0124 16.6444 28.6327 19.1636M10.2857 22.7134C10.2857 25.0015 8.43089 26.8564 6.14286 26.8564C3.85482 26.8564 2 25.0015 2 22.7134C2 20.4253 3.85482 18.5705 6.14286 18.5705C8.43089 18.5705 10.2857 20.4253 10.2857 22.7134ZM68.2857 22.7134C68.2857 25.0015 66.4309 26.8564 64.1429 26.8564C61.8548 26.8564 60 25.0015 60 22.7134C60 20.4253 61.8548 18.5705 64.1429 18.5705C66.4309 18.5705 68.2857 20.4253 68.2857 22.7134ZM39.2857 6.14295C39.2857 8.43104 37.4309 10.2859 35.1429 10.2859C32.8548 10.2859 31 8.43104 31 6.14295C31 3.85486 32.8548 2 35.1429 2C37.4309 2 39.2857 3.85486 39.2857 6.14295ZM39.2827 43.7173V37.5616L35.1429 35.1714L31.003 37.5616V43.7173L35.1429 46.1075L39.2827 43.7173Z" stroke="url(#paint0_linear_0_317)" stroke-width="3" stroke-miterlimit="10"/>
<defs>
<linearGradient id="paint0_linear_0_317" x1="35.2634" y1="2" x2="35.2634" y2="60" gradientUnits="userSpaceOnUse">
<stop stop-color="#426F98"/>
<stop offset="0.065" stop-color="#40709C"/>
<stop offset="0.94" stop-color="#305487"/>
<stop offset="1" stop-color="#476FA7"/>
</linearGradient>
</defs>
</svg>
