<svg width="62" height="62" viewBox="0 0 62 62" fill="none" xmlns="http://www.w3.org/2000/svg">
<path d="M45.0491 13.5976L34.0225 2H12.8128L2 13.5756M2 13.5756L18.0738 32.361M2 13.5756H45.0491L35.0528 26.766M27.2565 26.766L31.1813 13.5976L23.3303 2L15.8145 13.5756L20.2458 28.4778M21.2033 26.766L11.7894 43.597L21.3459 60M21.2033 26.766H50.7287M21.2033 26.766L26.7188 34.9702M50.7287 26.766L60 43.597M50.7287 26.766L45.1427 34.9702M60 43.597L50.8714 60M60 43.597H49.8365M50.8714 60H21.3459M50.8714 60L45.2149 51.7959M21.3459 60L26.791 51.7959M21.9527 43.4913L26.7188 34.9702M21.9527 43.4913L26.791 51.7959M21.9527 43.4913H11.7894M26.7188 34.9702H45.1427M45.1427 34.9702L49.8365 43.4913L45.2149 51.7959M45.2149 51.7959H26.791" stroke="url(#paint0_linear_0_324)" stroke-width="3" stroke-miterlimit="10" stroke-linecap="round" stroke-linejoin="round"/>
<defs>
<linearGradient id="paint0_linear_0_324" x1="31.1055" y1="2" x2="31.1055" y2="60" gradientUnits="userSpaceOnUse">
<stop stop-color="#426F98"/>
<stop offset="0.065" stop-color="#40709C"/>
<stop offset="0.94" stop-color="#305487"/>
<stop offset="1" stop-color="#476FA7"/>
</linearGradient>
</defs>
</svg>
