<svg width="62" height="62" viewBox="0 0 62 62" fill="none" xmlns="http://www.w3.org/2000/svg">
<path d="M42.8867 52.5031C43.3871 50.6788 45.3001 49.2666 47.2753 49.2666C49.2763 49.2666 51.2071 50.642 51.6829 52.5031M10.6752 14.0976H7.5686C4.49316 14.0976 2 16.602 2 19.6916V30.671C2 33.2894 4.11303 35.412 6.71954 35.412H28.2687C30.8752 35.412 32.9882 33.2893 32.9882 30.671V19.6916C32.9882 16.602 30.4951 14.0976 27.4196 14.0976H24.2991M9.92049 24.2807V27.7031H17.5203M17.5203 27.7031C19.6408 27.7031 21.3598 29.43 21.3598 31.5601C21.3598 33.6903 19.6408 35.4171 17.5203 35.4171M17.5203 27.7031H24.8834V24.2807M17.4971 40.1547C17.4991 37.5352 15.3756 35.4116 12.756 35.4116C10.1365 35.4116 8.01287 37.5351 8.01287 40.1547V55.2569C8.01287 57.8764 10.1364 60 12.756 60C15.3756 60 17.4991 57.8764 17.4971 55.2569M17.4971 40.1547V55.2569M17.4971 40.1547C17.484 37.5351 19.6076 35.4116 22.2271 35.4116C24.8467 35.4116 26.9702 37.5352 26.9702 40.1547V55.2569C26.9702 57.8764 24.8467 60 22.2271 60C19.6075 60 17.484 57.8764 17.4971 55.2569M60 47.2269C60 54.2813 54.3072 60 47.2848 60C40.2623 60 34.5695 54.2813 34.5695 47.2269C34.5695 40.1725 40.2623 34.4538 47.2848 34.4538C54.3072 34.4538 60 40.1725 60 47.2269ZM25.4451 9.98715C25.4451 14.3983 21.8853 17.9743 17.4941 17.9743C13.1028 17.9743 9.54301 14.3983 9.54301 9.98715C9.54301 5.57597 13.1028 2 17.4941 2C21.8853 2 25.4451 5.57597 25.4451 9.98715Z" stroke="url(#paint0_linear_0_329)" stroke-width="3" stroke-miterlimit="10" stroke-linecap="round" stroke-linejoin="round"/>
<defs>
<linearGradient id="paint0_linear_0_329" x1="31.1055" y1="2" x2="31.1055" y2="60" gradientUnits="userSpaceOnUse">
<stop stop-color="#426F98"/>
<stop offset="0.065" stop-color="#40709C"/>
<stop offset="0.94" stop-color="#305487"/>
<stop offset="1" stop-color="#476FA7"/>
</linearGradient>
</defs>
</svg>
