<svg width="62" height="62" viewBox="0 0 62 62" fill="none" xmlns="http://www.w3.org/2000/svg">
<path d="M30.5188 54.3443L35.9337 48.9294M14.2739 60L21.4938 52.7801M7.65565 31.4812L13.0706 26.0663M2 47.7261L9.21992 40.5062M2 60L6.81328 55.1867M36.5538 40.7618L21.2382 25.4462L37.5606 9.12364C43.3106 3.37369 51.5536 0.878006 59.5272 2.47265L59.5274 2.47277C61.122 10.4463 58.6263 18.6893 52.8764 24.4393L36.5538 40.7618ZM43.3609 44.1653L38.2555 39.0601L47.0999 30.2157C48.0437 29.272 49.2057 28.5759 50.4831 28.1891C51.7604 27.8024 53.1135 27.7369 54.4221 27.9987C54.6839 29.3074 54.6185 30.6605 54.2318 31.9378C53.845 33.2152 53.1489 34.3773 52.2051 35.321L43.3609 44.1653ZM22.9399 23.7445L17.8347 18.6391L26.679 9.79485C27.6227 8.85112 28.7848 8.15499 30.0622 7.76824C31.3395 7.3815 32.6926 7.3161 34.0013 7.57785C34.2631 8.88653 34.1976 10.2396 33.8109 11.5169C33.4241 12.7942 32.728 13.9563 31.7843 14.9001L22.9399 23.7445ZM28.896 43.3144L18.6856 33.104L23.7908 27.9988L34.0013 38.2092L28.896 43.3144ZM28.0451 42.4637C22.406 48.1027 13.5803 48.4197 13.5803 48.4197C13.5803 48.4197 13.8973 39.594 19.5363 33.9549L28.0451 42.4637ZM49.3169 17.7884C47.9071 19.1981 45.6214 19.1981 44.2116 17.7884C42.8019 16.3786 42.8019 14.0929 44.2116 12.6831C45.6214 11.2732 47.9071 11.2732 49.3169 12.6831C50.7268 14.0929 50.7268 16.3786 49.3169 17.7884Z" stroke="url(#paint0_linear_0_332)" stroke-width="3" stroke-miterlimit="10" stroke-linecap="round" stroke-linejoin="round"/>
<defs>
<linearGradient id="paint0_linear_0_332" x1="31.1055" y1="2" x2="31.1055" y2="60" gradientUnits="userSpaceOnUse">
<stop stop-color="#426F98"/>
<stop offset="0.065" stop-color="#40709C"/>
<stop offset="0.94" stop-color="#305487"/>
<stop offset="1" stop-color="#476FA7"/>
</linearGradient>
</defs>
</svg>
