<svg width="62" height="62" viewBox="0 0 62 62" fill="none" xmlns="http://www.w3.org/2000/svg">
<path d="M9.1457 34.9898L25.8547 22.8056L22.612 16.355L9.21983 23.0871M20.5725 8.70092L9.1457 14.4452M17.2571 18.4484L14.0144 11.9977M52.7795 34.9358L36.1446 22.8056L39.3873 16.355L52.7795 23.0871M41.4268 8.70092L52.7795 14.4079M44.7422 18.4484L47.9849 11.9977M2 47.1245V2H9.21983V47.1245M52.7795 47.1245V2H59.9993V47.1245M2 60V47.1765L2.01793 47.1683C4.29603 46.1277 7.98969 46.1277 10.2678 47.1683L10.3036 47.1846C12.5817 48.2253 16.2754 48.2253 18.5535 47.1846L18.5894 47.1683C20.8675 46.1277 24.5611 46.1277 26.8392 47.1683L26.8751 47.1846C29.1532 48.2253 32.8468 48.2253 35.1249 47.1846L35.1608 47.1683C37.4389 46.1277 41.1325 46.1277 43.4106 47.1683L43.4465 47.1846C45.7246 48.2253 49.4183 48.2253 51.6964 47.1846L51.7322 47.1683C54.0103 46.1277 57.704 46.1277 59.9821 47.1683L60 47.1765V60H2Z" stroke="url(#paint0_linear_0_338)" stroke-width="3" stroke-miterlimit="10"/>
<defs>
<linearGradient id="paint0_linear_0_338" x1="31.1055" y1="2" x2="31.1055" y2="60" gradientUnits="userSpaceOnUse">
<stop stop-color="#426F98"/>
<stop offset="0.065" stop-color="#40709C"/>
<stop offset="0.94" stop-color="#305487"/>
<stop offset="1" stop-color="#476FA7"/>
</linearGradient>
</defs>
</svg>
