<svg width="62" height="62" viewBox="0 0 62 62" fill="none" xmlns="http://www.w3.org/2000/svg">
<path d="M39.8277 29.411L38.5705 28.5928L38.5705 28.5928L39.8277 29.411ZM47.5714 2L49.0714 2C49.0714 1.60218 48.9134 1.22064 48.6321 0.93934C48.3507 0.658035 47.9692 0.5 47.5714 0.5V2ZM14.4286 2V0.5C14.0308 0.5 13.6493 0.658037 13.3679 0.939345C13.0866 1.22065 12.9286 1.60219 12.9286 2.00001L14.4286 2ZM22.1723 29.411L23.4295 28.5928L23.4295 28.5928L22.1723 29.411ZM24.6968 36.7191L26.1935 36.6197V36.6197L24.6968 36.7191ZM18.5715 45.6207L18.1807 44.1725C17.4545 44.3685 16.9857 45.0721 17.0845 45.8178C17.1834 46.5635 17.8193 47.1207 18.5715 47.1207V45.6207ZM43.4286 45.6207V47.1207C44.1809 47.1207 44.8168 46.5635 44.9156 45.8178C45.0144 45.072 44.5456 44.3684 43.8194 44.1725L43.4286 45.6207ZM37.3033 36.7191L38.8 36.8186L38.8 36.8185L37.3033 36.7191ZM14.4286 45.6207V44.1207C13.6002 44.1207 12.9286 44.7923 12.9286 45.6207H14.4286ZM47.5715 45.6207H49.0715C49.0715 44.7923 48.4 44.1207 47.5715 44.1207V45.6207ZM47.5715 60V61.5C48.4 61.5 49.0715 60.8284 49.0715 60H47.5715ZM14.4286 60H12.9286C12.9286 60.8284 13.6002 61.5 14.4286 61.5V60ZM14.4286 7.13511C15.257 7.13511 15.9286 6.46353 15.9286 5.63511C15.9286 4.80668 15.257 4.13511 14.4286 4.13511V7.13511ZM6.14292 5.63511V4.13511C5.71279 4.13511 5.30337 4.31975 5.01863 4.64214L6.14292 5.63511ZM2 10.3259L0.875718 9.33292C0.603559 9.64107 0.46981 10.0474 0.505739 10.457L2 10.3259ZM21.9138 30.6276L21.0675 31.866L21.0675 31.866L21.9138 30.6276ZM19.8959 35.6382C19.1405 35.9782 18.8037 36.8662 19.1437 37.6216C19.4837 38.3771 20.3717 38.7139 21.1272 38.3738L19.8959 35.6382ZM47.5714 4.13511C46.743 4.13511 46.0714 4.80668 46.0714 5.63511C46.0714 6.46353 46.743 7.13511 47.5714 7.13511V4.13511ZM55.8571 5.63511L56.9814 4.64215C56.6966 4.31976 56.2872 4.13511 55.8571 4.13511V5.63511ZM60 10.326L61.4943 10.4571C61.5302 10.0475 61.3964 9.6412 61.1243 9.33305L60 10.326ZM40.0862 30.6277L40.9325 31.8661L40.9325 31.8661L40.0862 30.6277ZM40.8728 38.374C41.6283 38.714 42.5163 38.3772 42.8563 37.6218C43.1963 36.8663 42.8595 35.9783 42.1041 35.6383L40.8728 38.374ZM22.7143 51.3908C21.8859 51.3908 21.2143 52.0624 21.2143 52.8908C21.2143 53.7192 21.8859 54.3908 22.7143 54.3908V51.3908ZM39.2857 54.3908C40.1141 54.3908 40.7857 53.7192 40.7857 52.8908C40.7857 52.0624 40.1141 51.3908 39.2857 51.3908V54.3908ZM41.0849 30.2293C45.1082 24.0476 47.0932 16.9777 48.0796 11.5101C48.5746 8.76653 48.8222 6.40248 48.9463 4.72019C49.0084 3.87854 49.0397 3.2061 49.0554 2.7405C49.0633 2.50765 49.0673 2.32641 49.0693 2.20146C49.0703 2.13898 49.0708 2.09056 49.0711 2.05679C49.0712 2.03991 49.0713 2.02669 49.0714 2.0172C49.0714 2.01245 49.0714 2.00864 49.0714 2.00577C49.0714 2.00434 49.0714 2.00314 49.0714 2.00218C49.0714 2.00169 49.0714 2.00115 49.0714 2.00091C49.0714 2.00043 49.0714 2 47.5714 2C46.0714 2 46.0714 1.99969 46.0714 1.99944C46.0714 1.99944 46.0714 1.99925 46.0714 1.99924C46.0714 1.99923 46.0714 1.99944 46.0714 1.99989C46.0714 2.00079 46.0714 2.00263 46.0714 2.00538C46.0714 2.0109 46.0713 2.02011 46.0712 2.03294C46.071 2.0586 46.0706 2.09874 46.0697 2.15279C46.0679 2.26089 46.0644 2.42456 46.0571 2.63914C46.0426 3.06839 46.0134 3.70088 45.9545 4.49949C45.8366 6.09774 45.6003 8.35559 45.1273 10.9775C44.1777 16.241 42.2909 22.8767 38.5705 28.5928L41.0849 30.2293ZM47.5714 0.5H14.4286V3.5H47.5714V0.5ZM14.4286 2C12.9286 2.00001 12.9286 2.00044 12.9286 2.00092C12.9286 2.00116 12.9286 2.00171 12.9286 2.00219C12.9286 2.00315 12.9286 2.00435 12.9286 2.00578C12.9286 2.00865 12.9286 2.01246 12.9287 2.01721C12.9287 2.0267 12.9288 2.03992 12.9289 2.05681C12.9292 2.09057 12.9297 2.13899 12.9307 2.20147C12.9327 2.32642 12.9367 2.50766 12.9446 2.74051C12.9603 3.20612 12.9916 3.87855 13.0537 4.7202C13.1778 6.40248 13.4255 8.76654 13.9205 11.5101C14.9068 16.9777 16.8919 24.0476 20.9151 30.2292L23.4295 28.5928C19.7092 22.8767 17.8224 16.241 16.8728 10.9775C16.3998 8.35559 16.1635 6.09773 16.0456 4.49948C15.9866 3.70087 15.9574 3.06838 15.9429 2.63913C15.9356 2.42455 15.9321 2.26088 15.9303 2.15278C15.9294 2.09873 15.929 2.05859 15.9288 2.03292C15.9287 2.02009 15.9287 2.01088 15.9286 2.00537C15.9286 2.00261 15.9286 2.00078 15.9286 1.99988C15.9286 1.99943 15.9286 1.99921 15.9286 1.99923C15.9286 1.99924 15.9286 1.99943 15.9286 1.99943C15.9286 1.99968 15.9286 1.99999 14.4286 2ZM20.9151 30.2292C22.2487 32.2783 23.048 34.5289 23.2001 36.8186L26.1935 36.6197C26.0036 33.7611 25.0105 31.022 23.4295 28.5928L20.9151 30.2292ZM23.2001 36.8186C23.3039 38.3808 23.1137 39.9247 22.4115 41.1959C21.7376 42.4159 20.5051 43.5453 18.1807 44.1725L18.9623 47.0689C21.9834 46.2537 23.9279 44.6552 25.0375 42.6464C26.1189 40.6888 26.3186 38.5032 26.1935 36.6197L23.2001 36.8186ZM18.5715 47.1207H43.4286V44.1207H18.5715V47.1207ZM43.8194 44.1725C41.495 43.5453 40.2625 42.4159 39.5886 41.1959C38.8864 39.9248 38.6962 38.3808 38.8 36.8186L35.8066 36.6197C35.6815 38.5032 35.8812 40.6889 36.9626 42.6465C38.0721 44.6552 40.0167 46.2538 43.0379 47.0689L43.8194 44.1725ZM38.8 36.8185C38.952 34.5288 39.7513 32.2783 41.0849 30.2292L38.5705 28.5928C36.9895 31.022 35.9964 33.7612 35.8066 36.6198L38.8 36.8185ZM14.4286 47.1207H47.5715V44.1207H14.4286V47.1207ZM46.0715 45.6207V60H49.0715V45.6207H46.0715ZM47.5715 58.5H14.4286V61.5H47.5715V58.5ZM15.9286 60V45.6207H12.9286V60H15.9286ZM14.4286 4.13511H6.14292V7.13511H14.4286V4.13511ZM5.01863 4.64214L0.875718 9.33292L3.12428 11.3189L7.2672 6.62808L5.01863 4.64214ZM2 10.3259C0.505739 10.457 0.505904 10.4588 0.506074 10.4607C0.506135 10.4614 0.50631 10.4633 0.506434 10.4647C0.506681 10.4673 0.506946 10.4701 0.507228 10.473C0.507793 10.4788 0.508428 10.485 0.509142 10.4916C0.510571 10.5049 0.512317 10.5199 0.514447 10.5366C0.518708 10.57 0.524505 10.6102 0.532378 10.6571C0.54813 10.7511 0.572159 10.8718 0.608751 11.0192C0.681973 11.3139 0.805174 11.7136 1.01213 12.2158C1.42603 13.2201 2.17345 14.631 3.52285 16.4326C6.21742 20.0301 11.3329 25.2134 21.0675 31.866L22.7602 29.3891C13.2054 22.8594 8.36402 17.8918 5.92401 14.6341C4.70612 13.0081 4.09182 11.8152 3.78583 11.0727C3.63284 10.7015 3.55655 10.442 3.52027 10.2959C3.50211 10.2228 3.49388 10.1778 3.49107 10.161C3.48966 10.1526 3.48959 10.1512 3.49031 10.1568C3.49067 10.1597 3.49123 10.1642 3.49191 10.1706C3.49225 10.1737 3.49262 10.1773 3.49302 10.1814C3.49322 10.1834 3.49342 10.1855 3.49363 10.1878C3.49373 10.1889 3.49389 10.1906 3.49394 10.1912C3.4941 10.193 3.49426 10.1948 2 10.3259ZM21.0675 31.866C21.9095 32.4414 22.1907 32.8893 22.2786 33.1333C22.3497 33.3304 22.343 33.5197 22.2129 33.7805C21.8837 34.4407 20.9292 35.1731 19.8959 35.6382L21.1272 38.3738C22.3704 37.8143 24.1022 36.7141 24.8975 35.1195C25.3297 34.253 25.4949 33.2093 25.1009 32.1162C24.7239 31.07 23.9033 30.1703 22.7601 29.3891L21.0675 31.866ZM47.5714 7.13511H55.8571V4.13511H47.5714V7.13511ZM54.7328 6.62806L58.8757 11.319L61.1243 9.33305L56.9814 4.64215L54.7328 6.62806ZM60 10.326C58.5057 10.1949 58.5059 10.1931 58.5061 10.1913C58.5061 10.1908 58.5063 10.189 58.5064 10.1879C58.5066 10.1856 58.5068 10.1835 58.507 10.1815C58.5074 10.1774 58.5077 10.1738 58.5081 10.1707C58.5088 10.1643 58.5093 10.1598 58.5097 10.157C58.5104 10.1513 58.5103 10.1527 58.5089 10.1611C58.5061 10.1779 58.4979 10.2229 58.4797 10.2961C58.4434 10.4421 58.3672 10.7016 58.2142 11.0728C57.9082 11.8153 57.2939 13.0082 56.076 14.6342C53.636 17.8919 48.7946 22.8595 39.2398 29.3893L40.9325 31.8661C50.6671 25.2135 55.7826 20.0302 58.4771 16.4327C59.8265 14.6311 60.574 13.2202 60.9879 12.2159C61.1948 11.7137 61.318 11.314 61.3912 11.0193C61.4278 10.872 61.4519 10.7512 61.4676 10.6573C61.4755 10.6103 61.4813 10.5701 61.4855 10.5367C61.4877 10.52 61.4894 10.505 61.4909 10.4918C61.4916 10.4851 61.4922 10.4789 61.4928 10.4731C61.4931 10.4702 61.4933 10.4675 61.4936 10.4648C61.4937 10.4635 61.4939 10.4615 61.4939 10.4609C61.4941 10.459 61.4943 10.4571 60 10.326ZM39.2399 29.3893C38.0967 30.1705 37.2761 31.0702 36.8991 32.1163C36.5051 33.2095 36.6703 34.2531 37.1025 35.1196C37.8978 36.7142 39.6296 37.8144 40.8728 38.374L42.1041 35.6383C41.0708 35.1732 40.1163 34.4408 39.7871 33.7807C39.657 33.5198 39.6503 33.3305 39.7214 33.1335C39.8093 32.8894 40.0905 32.4416 40.9325 31.8661L39.2399 29.3893ZM22.7143 54.3908H39.2857V51.3908H22.7143V54.3908ZM24.7023 39.8506H37.3388V36.8506H24.7023V39.8506Z" fill="url(#paint0_linear_0_341)"/>
<defs>
<linearGradient id="paint0_linear_0_341" x1="31.1055" y1="2" x2="31.1055" y2="60" gradientUnits="userSpaceOnUse">
<stop stop-color="#426F98"/>
<stop offset="0.065" stop-color="#40709C"/>
<stop offset="0.94" stop-color="#305487"/>
<stop offset="1" stop-color="#476FA7"/>
</linearGradient>
</defs>
</svg>
