<svg width="56" height="25" viewBox="0 0 56 25" fill="none" xmlns="http://www.w3.org/2000/svg">
<g clip-path="url(#clip0_0_419)">
<path d="M26.4424 12.1976V18.5911H24.415V2.80854H29.792C31.089 2.78337 32.3356 3.27421 33.2801 4.18039C34.2245 5.02364 34.7534 6.24447 34.7282 7.50305C34.7534 8.77421 34.2245 9.99504 33.2801 10.8509C32.3356 11.7445 31.1771 12.1976 29.8046 12.1976H26.4424ZM26.4424 4.74675V10.2593H29.8423C30.5979 10.2845 31.3283 9.98245 31.8445 9.44126C32.9149 8.40923 32.9275 6.71014 31.8949 5.64035L31.8445 5.59C31.3283 5.03623 30.5979 4.73417 29.8423 4.75934L26.4424 4.74675ZM39.4 7.44012C40.8985 7.44012 42.0821 7.84286 42.951 8.63577C43.8199 9.44126 44.248 10.5362 44.248 11.9333V18.5786H42.3088V17.0809H42.2206C41.377 18.3143 40.2688 18.931 38.8711 18.931C37.6874 18.931 36.68 18.5786 35.8867 17.8738C35.106 17.2193 34.6652 16.2502 34.6904 15.2307C34.6904 14.1106 35.1186 13.2296 35.9622 12.5625C36.8059 11.8955 37.9392 11.5683 39.3496 11.5683C40.5585 11.5683 41.5407 11.7948 42.3214 12.2227V11.7571C42.3214 11.0648 42.0192 10.4104 41.4903 9.96987C40.9488 9.49161 40.2562 9.2273 39.5385 9.2273C38.4052 9.2273 37.5111 9.70556 36.8437 10.6621L35.0556 9.54195C36.0252 8.14492 37.4733 7.44012 39.4 7.44012ZM36.7807 15.2811C36.7807 15.8097 37.0326 16.3005 37.4481 16.6026C37.9015 16.955 38.4555 17.1438 39.0222 17.1312C39.8785 17.1312 40.697 16.7914 41.3014 16.1873C41.9688 15.558 42.3088 14.8154 42.3088 13.9596C41.6792 13.4561 40.7977 13.2044 39.6644 13.2044C38.8459 13.2044 38.1533 13.4058 37.5992 13.796C37.0578 14.1987 36.7807 14.6895 36.7807 15.2811ZM55.3797 7.79252L48.605 23.3486H46.5147L49.0331 17.9115L44.5754 7.80511H46.7791L49.9901 15.558H50.0405L53.176 7.80511L55.3797 7.79252Z" fill="white"/>
<path d="M18.245 10.8131C18.245 10.1964 18.1947 9.5797 18.0939 8.97559H9.5437V12.4619H14.4421C14.2407 13.582 13.5859 14.5889 12.6288 15.2181V17.4836H15.5503C17.2628 15.9104 18.245 13.582 18.245 10.8131Z" fill="white"/>
<path d="M9.54343 19.6736C11.9863 19.6736 14.0515 18.8681 15.55 17.4836L12.6286 15.2182C11.8101 15.772 10.7649 16.0866 9.54343 16.0866C7.17606 16.0866 5.17387 14.4882 4.45611 12.3486H1.44653V14.6896C2.9828 17.7354 6.1183 19.6736 9.54343 19.6736Z" fill="white"/>
<path d="M4.4562 12.3489C4.07843 11.2288 4.07843 10.008 4.4562 8.87525V6.54688H1.44663C0.807144 7.80668 0.473877 9.19943 0.473877 10.6121C0.473877 12.0248 0.807144 13.4175 1.44663 14.6773L4.4562 12.3489Z" fill="white"/>
<path d="M9.54367 5.13731C10.8407 5.11214 12.0873 5.60298 13.0192 6.49658L15.6006 3.91649C13.9636 2.36843 11.7977 1.52518 9.54367 1.55035C6.11855 1.55035 2.98305 3.48857 1.44678 6.54692L4.45635 8.88788C5.17412 6.73571 7.17631 5.13731 9.54367 5.13731Z" fill="white"/>
</g>
<defs>
<clipPath id="clip0_0_419">
<rect width="55.0287" height="25" fill="white" transform="translate(0.351074)"/>
</clipPath>
</defs>
</svg>
