<svg width="56" height="25" viewBox="0 0 56 25" fill="none" xmlns="http://www.w3.org/2000/svg">
<g clip-path="url(#clip0_0_410)">
<path d="M17.5357 24.945V23.2857C17.5357 22.6497 17.1483 22.2348 16.4842 22.2348C16.1522 22.2348 15.7925 22.3455 15.5435 22.705C15.3498 22.4008 15.0731 22.2348 14.6581 22.2348C14.3814 22.2348 14.1047 22.3178 13.8833 22.622V22.2902H13.3022V24.945H13.8833V23.4793C13.8833 23.0092 14.1323 22.7879 14.5197 22.7879C14.9071 22.7879 15.1008 23.0368 15.1008 23.4793V24.945H15.6818V23.4793C15.6818 23.0092 15.9585 22.7879 16.3182 22.7879C16.7056 22.7879 16.8993 23.0368 16.8993 23.4793V24.945H17.5357ZM26.1408 22.2901H25.2V21.4881H24.619V22.2901H24.0932V22.8156H24.619V24.0324C24.619 24.6408 24.868 25.0003 25.5321 25.0003C25.7811 25.0003 26.0578 24.9174 26.2515 24.8067L26.0855 24.309C25.9195 24.4196 25.7258 24.4472 25.5874 24.4472C25.3107 24.4472 25.2 24.2813 25.2 24.0047V22.8156H26.1408V22.2901ZM31.0659 22.2348C30.7339 22.2348 30.5125 22.4007 30.3742 22.622V22.2902H29.7931V24.945H30.3742V23.4516C30.3742 23.0092 30.5679 22.7603 30.9276 22.7603C31.0382 22.7603 31.1766 22.7879 31.2873 22.8156L31.4533 22.2625C31.3426 22.2348 31.1766 22.2348 31.0659 22.2348ZM23.6229 22.5114C23.3462 22.3178 22.9588 22.2348 22.5438 22.2348C21.8797 22.2348 21.437 22.5667 21.437 23.0921C21.437 23.5346 21.769 23.7835 22.3501 23.8665L22.6268 23.8941C22.9312 23.9494 23.0972 24.0324 23.0972 24.1707C23.0972 24.3642 22.8758 24.5025 22.4884 24.5025C22.1011 24.5025 21.7967 24.3642 21.603 24.226L21.3263 24.6684C21.6307 24.8897 22.0457 25.0003 22.4608 25.0003C23.2355 25.0003 23.6782 24.6408 23.6782 24.143C23.6782 23.6729 23.3185 23.424 22.7652 23.341L22.4884 23.3134C22.2394 23.2857 22.0457 23.2304 22.0457 23.0645C22.0457 22.8709 22.2394 22.7603 22.5438 22.7603C22.8758 22.7603 23.2079 22.8985 23.3739 22.9815L23.6229 22.5114ZM39.0623 22.2348C38.7303 22.2348 38.509 22.4007 38.3706 22.622V22.2902H37.7896V24.945H38.3706V23.4516C38.3706 23.0092 38.5643 22.7603 38.924 22.7603C39.0347 22.7603 39.173 22.7879 39.2837 22.8156L39.4497 22.2625C39.339 22.2348 39.173 22.2348 39.0623 22.2348ZM31.647 23.6176C31.647 24.4196 32.2004 25.0003 33.0581 25.0003C33.4455 25.0003 33.7222 24.9174 33.9989 24.6961L33.7222 24.226C33.5008 24.3919 33.2795 24.4749 33.0304 24.4749C32.5601 24.4749 32.228 24.143 32.228 23.6176C32.228 23.1198 32.5601 22.7879 33.0304 22.7603C33.2795 22.7603 33.5008 22.8432 33.7222 23.0092L33.9989 22.539C33.7222 22.3178 33.4455 22.2348 33.0581 22.2348C32.2004 22.2348 31.647 22.8156 31.647 23.6176ZM37.0148 23.6176V22.2901H36.4338V22.6219C36.2401 22.3731 35.9634 22.2348 35.6037 22.2348C34.8566 22.2348 34.2756 22.8155 34.2756 23.6176C34.2756 24.4195 34.8566 25.0003 35.6037 25.0003C35.9911 25.0003 36.2677 24.862 36.4338 24.6131V24.945H37.0148V23.6175V23.6176ZM34.8843 23.6176C34.8843 23.1474 35.1887 22.7603 35.6867 22.7603C36.1571 22.7603 36.4891 23.1198 36.4891 23.6176C36.4891 24.0877 36.1571 24.4749 35.6867 24.4749C35.1887 24.4472 34.8843 24.0877 34.8843 23.6176V23.6176ZM27.9393 22.2348C27.1646 22.2348 26.6112 22.7879 26.6112 23.6176C26.6112 24.4472 27.1646 25.0003 27.967 25.0003C28.3543 25.0003 28.7417 24.8897 29.0461 24.6408L28.7694 24.226C28.548 24.3919 28.2713 24.5025 27.9946 24.5025C27.6349 24.5025 27.2752 24.3366 27.1922 23.8665H29.1568V23.6452C29.1844 22.7879 28.6864 22.2348 27.9393 22.2348ZM27.9393 22.7326C28.299 22.7326 28.548 22.9539 28.6034 23.3687H27.2199C27.2752 23.0091 27.5243 22.7326 27.9393 22.7326ZM42.355 23.6176V21.2393H41.7739V22.622C41.5803 22.3731 41.3036 22.2348 40.9439 22.2348C40.1968 22.2348 39.6157 22.8156 39.6157 23.6176C39.6157 24.4196 40.1968 25.0003 40.9439 25.0003C41.3312 25.0003 41.6079 24.862 41.7739 24.6132V24.945H42.355V23.6176ZM40.2245 23.6176C40.2245 23.1474 40.5288 22.7603 41.0269 22.7603C41.4972 22.7603 41.8293 23.1198 41.8293 23.6176C41.8293 24.0877 41.4973 24.4749 41.0269 24.4749C40.5288 24.4472 40.2245 24.0877 40.2245 23.6176ZM20.8006 23.6176V22.2901H20.2196V22.622C20.0259 22.3731 19.7492 22.2348 19.3895 22.2348C18.6424 22.2348 18.0614 22.8156 18.0614 23.6176C18.0614 24.4196 18.6424 25.0003 19.3895 25.0003C19.7769 25.0003 20.0536 24.862 20.2196 24.6132V24.945H20.8006V23.6176ZM18.6424 23.6176C18.6424 23.1474 18.9468 22.7603 19.4448 22.7603C19.9152 22.7603 20.2473 23.1198 20.2473 23.6176C20.2473 24.0877 19.9152 24.4749 19.4448 24.4749C18.9468 24.4472 18.6424 24.0877 18.6424 23.6176Z" fill="white"/>
<path d="M23.4294 2.12988H32.1453V17.7825H23.4294V2.12988Z" fill="#C7C6C6"/>
<path d="M23.9827 9.95574C23.9827 6.77544 25.4769 3.95465 27.7734 2.12943C26.0856 0.801994 23.9551 0 21.6308 0C16.1247 0 11.6699 4.45242 11.6699 9.95574C11.6699 15.4591 16.1247 19.9115 21.6308 19.9115C23.9551 19.9115 26.0856 19.1095 27.7734 17.7821C25.4769 15.9845 23.9827 13.136 23.9827 9.95574Z" fill="white"/>
<path d="M43.9045 9.95574C43.9045 15.4591 39.4498 19.9115 33.9436 19.9115C31.6194 19.9115 29.4889 19.1095 27.801 17.7821C30.1253 15.9569 31.5917 13.1361 31.5917 9.95577C31.5917 6.77544 30.0976 3.95465 27.801 2.12943C29.4889 0.801994 31.6194 0 33.9436 0C39.4498 0 43.9045 4.48009 43.9045 9.95574Z" fill="white"/>
</g>
<defs>
<clipPath id="clip0_0_410">
<rect width="55.0287" height="25" fill="white" transform="translate(0.272949)"/>
</clipPath>
</defs>
</svg>
