<svg width="56" height="25" viewBox="0 0 56 25" fill="none" xmlns="http://www.w3.org/2000/svg">
<g clip-path="url(#clip0_0_415)">
<path fill-rule="evenodd" clip-rule="evenodd" d="M5.40842 5C5.89304 5 7.34693 4.875 7.97225 6.95312C8.39435 8.35938 9.05094 10.6563 9.95766 13.8594H10.3329C11.3177 10.4844 11.99 8.1875 12.3495 6.95312C12.9749 4.84375 14.5382 5 15.1635 5H19.9941V20H15.0697V11.1562H14.7414L12.0056 20H8.30055L5.56475 11.1562H5.23645V20H0.312012V5H5.40842ZM27.0447 5V13.8438H27.4355L30.7654 6.5625C31.4063 5.10938 32.7977 4.98438 32.7977 4.98438H37.5502V19.9844H32.5319V11.1562H32.1411L28.8738 18.4375C28.2328 19.875 26.7789 20.0156 26.7789 20.0156H22.0264V5.01563H27.0447V5ZM54.9186 12.125C54.2151 14.1094 52.0264 15.5312 49.5877 15.5312H44.3193V20H39.5512V12.125H54.9186Z" fill="white"/>
<path fill-rule="evenodd" clip-rule="evenodd" d="M49.8065 5H39.2854C39.5355 8.34375 42.412 11.2031 45.398 11.2031H55.2468C55.8096 8.42188 53.8555 5 49.8065 5Z" fill="white"/>
</g>
<defs>
<clipPath id="clip0_0_415">
<rect width="55.0287" height="25" fill="white" transform="translate(0.312012)"/>
</clipPath>
</defs>
</svg>
