<svg width="56" height="25" viewBox="0 0 56 25" fill="none" xmlns="http://www.w3.org/2000/svg">
<g clip-path="url(#clip0_0_404)">
<mask id="mask0_0_404" style="mask-type:luminance" maskUnits="userSpaceOnUse" x="0" y="3" width="56" height="19">
<path d="M28.6897 9.31029C28.6584 11.7744 30.8868 13.1496 32.5656 13.9671C34.2904 14.8061 34.8697 15.344 34.8631 16.0941C34.8499 17.2422 33.4872 17.7489 32.2117 17.7686C29.9866 17.8032 28.693 17.1682 27.6643 16.6879L26.8628 20.4367C27.8948 20.9121 29.8055 21.3266 31.7871 21.3447C36.4381 21.3447 39.4812 19.05 39.4977 15.492C39.5158 10.9766 33.2486 10.7266 33.2914 8.70824C33.3062 8.09632 33.8904 7.44327 35.1709 7.27713C35.8045 7.19324 37.554 7.12909 39.5372 8.04203L40.3156 4.41493C39.2492 4.02672 37.8782 3.65496 36.1715 3.65496C31.7937 3.65496 28.7144 5.98092 28.6897 9.31029ZM47.7958 3.9675C46.9466 3.9675 46.2307 4.46263 45.9114 5.2226L39.2673 21.0782H43.915L44.84 18.5236H50.5196L51.0562 21.0782H55.1526L51.5779 3.9675H47.7958ZM48.4459 8.5898L49.7873 15.015H46.1138L48.4459 8.5898ZM23.0545 3.9675L19.3909 21.0782H23.8197L27.4817 3.9675H23.0545ZM16.5025 3.9675L11.8926 15.6137L10.0279 5.71114C9.80902 4.60574 8.94498 3.9675 7.98547 3.9675H0.449335L0.343994 4.46427C1.89105 4.79984 3.64877 5.34103 4.7136 5.92005C5.36534 6.27372 5.55131 6.58297 5.76527 7.42353L9.29718 21.0782H13.9778L21.1536 3.9675H16.5025Z" fill="white"/>
</mask>
<g mask="url(#mask0_0_404)">
<path d="M-5.39551 5.76757L48.6072 -14.11L60.8926 19.2326L6.89042 39.1101" fill="white"/>
</g>
</g>
<defs>
<clipPath id="clip0_0_404">
<rect width="55.0287" height="25" fill="white" transform="translate(0.233887)"/>
</clipPath>
</defs>
</svg>
