<svg width="29" height="29" viewBox="0 0 29 29" fill="none" xmlns="http://www.w3.org/2000/svg">
<path fill-rule="evenodd" clip-rule="evenodd" d="M24.2762 4.51302C21.6525 1.88629 18.1632 0.439034 14.4459 0.4375C6.7862 0.4375 0.552243 6.67129 0.549176 14.3331C0.548124 16.7824 1.18793 19.1732 2.40408 21.2806L0.432617 28.4817L7.79952 26.5492C9.82939 27.6565 12.1147 28.24 14.4403 28.2407H14.4462C22.1051 28.2407 28.3397 22.0064 28.3426 14.3442C28.3442 10.6309 26.9 7.13962 24.2762 4.51302ZM14.4459 25.8937H14.4411C12.3687 25.8929 10.336 25.3359 8.56236 24.2837L8.14083 24.0333L3.76917 25.1801L4.93599 20.9179L4.66124 20.4809C3.50503 18.6419 2.89446 16.5163 2.89551 14.3339C2.89792 7.96561 8.07952 2.78454 14.4506 2.78454C17.5357 2.78554 20.4358 3.98851 22.6165 6.17175C24.7971 8.35499 25.9974 11.257 25.9964 14.3433C25.9937 20.7121 20.8124 25.8937 14.4459 25.8937ZM20.7816 17.2431C20.4344 17.0692 18.7272 16.2294 18.4088 16.1134C18.0908 15.9975 17.859 15.9398 17.6278 16.2873C17.3962 16.6348 16.7308 17.417 16.5282 17.6486C16.3255 17.8804 16.1232 17.9094 15.7759 17.7355C15.4286 17.5618 14.3098 17.195 12.9835 16.0121C11.9513 15.0913 11.2545 13.9543 11.0519 13.6068C10.8495 13.259 11.0501 13.0892 11.2042 12.8981C11.5801 12.4314 11.9565 11.942 12.0722 11.7104C12.188 11.4786 12.13 11.2758 12.0431 11.1021C11.9565 10.9283 11.2621 9.21923 10.9728 8.52378C10.6907 7.84699 10.4046 7.93836 10.1914 7.9278C9.98907 7.91767 9.75749 7.91561 9.5259 7.91561C9.29445 7.91561 8.91822 8.00238 8.59987 8.35021C8.28166 8.69787 7.38477 9.5378 7.38477 11.2469C7.38477 12.956 8.62897 14.6071 8.80254 14.8388C8.97606 15.0707 11.2511 18.5778 14.7342 20.0818C15.5626 20.4398 16.2093 20.6533 16.7138 20.8133C17.5456 21.0776 18.3024 21.0403 18.9008 20.9509C19.568 20.8511 20.955 20.1109 21.2446 19.2998C21.5339 18.4887 21.5339 17.7936 21.4469 17.6486C21.3603 17.5038 21.1287 17.417 20.7816 17.2431Z" fill="#274462"/>
</svg>
