<svg width="30" height="30" viewBox="0 0 30 30" fill="none" xmlns="http://www.w3.org/2000/svg">
<path d="M9.94809 14.7837C9.94809 12.0823 12.1375 9.89184 14.8389 9.89184C17.5404 9.89184 19.731 12.0823 19.731 14.7837C19.731 17.485 17.5404 19.6755 14.8389 19.6755C12.1375 19.6755 9.94809 17.485 9.94809 14.7837ZM7.30356 14.7837C7.30356 18.9453 10.6771 22.3187 14.8389 22.3187C19.0007 22.3187 22.3743 18.9453 22.3743 14.7837C22.3743 10.622 19.0007 7.24859 14.8389 7.24859C10.6771 7.24859 7.30356 10.622 7.30356 14.7837ZM20.9116 6.94982C20.9115 7.2981 21.0146 7.63859 21.208 7.92825C21.4014 8.21791 21.6763 8.44372 21.9981 8.57713C22.3198 8.71054 22.6739 8.74555 23.0155 8.67774C23.3571 8.60993 23.6709 8.44235 23.9173 8.19618C24.1637 7.95001 24.3315 7.63631 24.3996 7.29476C24.4677 6.9532 24.433 6.59912 24.2998 6.27731C24.1667 5.95549 23.9411 5.68038 23.6516 5.48677C23.362 5.29316 23.0216 5.18975 22.6733 5.18961H22.6726C22.2058 5.18983 21.7581 5.37533 21.4279 5.70536C21.0977 6.0354 20.912 6.48299 20.9116 6.94982V6.94982ZM8.91029 26.7282C7.47955 26.663 6.70189 26.4247 6.1851 26.2234C5.49996 25.9567 5.01111 25.639 4.49714 25.1257C3.98317 24.6125 3.66502 24.1241 3.39946 23.439C3.198 22.9225 2.95968 22.1446 2.89465 20.714C2.8235 19.1672 2.8093 18.7025 2.8093 14.7838C2.8093 10.865 2.82468 10.4017 2.89465 8.85361C2.9598 7.42292 3.19988 6.64659 3.39946 6.12853C3.66619 5.44342 3.98387 4.95459 4.49714 4.44064C5.01041 3.92669 5.49879 3.60855 6.1851 3.343C6.70166 3.14155 7.47955 2.90324 8.91029 2.83821C10.4571 2.76706 10.9218 2.75286 14.8389 2.75286C18.7561 2.75286 19.2212 2.76824 20.7693 2.83821C22.2001 2.90336 22.9764 3.14343 23.4945 3.343C24.1797 3.60855 24.6685 3.92739 25.1825 4.44064C25.6965 4.95389 26.0134 5.44342 26.2802 6.12853C26.4816 6.64507 26.7199 7.42292 26.785 8.85361C26.8561 10.4017 26.8703 10.865 26.8703 14.7838C26.8703 18.7025 26.8561 19.1659 26.785 20.714C26.7198 22.1446 26.4803 22.9223 26.2802 23.439C26.0134 24.1241 25.6958 24.613 25.1825 25.1257C24.6692 25.6385 24.1797 25.9567 23.4945 26.2234C22.978 26.4248 22.2001 26.6631 20.7693 26.7282C19.2225 26.7993 18.7578 26.8135 14.8389 26.8135C10.92 26.8135 10.4567 26.7993 8.91029 26.7282V26.7282ZM8.78878 0.198242C7.22655 0.269383 6.15904 0.517085 5.22678 0.879834C4.26129 1.25444 3.44396 1.757 2.62721 2.57242C1.81047 3.38785 1.30917 4.20644 0.934552 5.17189C0.571789 6.1047 0.324077 7.17158 0.252934 8.73375C0.180616 10.2984 0.164062 10.7986 0.164062 14.7837C0.164062 18.7687 0.180616 19.2689 0.252934 20.8336C0.324077 22.3959 0.571789 23.4626 0.934552 24.3954C1.30917 25.3603 1.81058 26.1798 2.62721 26.9949C3.44384 27.81 4.26129 28.3118 5.22678 28.6875C6.1608 29.0502 7.22655 29.2979 8.78878 29.3691C10.3543 29.4402 10.8537 29.4579 14.8389 29.4579C18.8242 29.4579 19.3244 29.4414 20.8891 29.3691C22.4514 29.2979 23.5182 29.0502 24.4511 28.6875C25.416 28.3118 26.2339 27.8103 27.0507 26.9949C27.8674 26.1795 28.3676 25.3603 28.7433 24.3954C29.1061 23.4626 29.355 22.3957 29.4249 20.8336C29.4961 19.2678 29.5126 18.7687 29.5126 14.7837C29.5126 10.7986 29.4961 10.2984 29.4249 8.73375C29.3538 7.17146 29.1061 6.10411 28.7433 5.17189C28.3676 4.20702 27.8661 3.38914 27.0507 2.57242C26.2352 1.75571 25.416 1.25444 24.4523 0.879834C23.5182 0.517085 22.4513 0.268209 20.8903 0.198242C19.3256 0.127102 18.8253 0.109375 14.8401 0.109375C10.8549 0.109375 10.3543 0.125928 8.78878 0.198242Z" fill="white"/>
<path d="M9.94809 14.7837C9.94809 12.0823 12.1375 9.89184 14.8389 9.89184C17.5404 9.89184 19.731 12.0823 19.731 14.7837C19.731 17.485 17.5404 19.6755 14.8389 19.6755C12.1375 19.6755 9.94809 17.485 9.94809 14.7837ZM7.30356 14.7837C7.30356 18.9453 10.6771 22.3187 14.8389 22.3187C19.0007 22.3187 22.3743 18.9453 22.3743 14.7837C22.3743 10.622 19.0007 7.24859 14.8389 7.24859C10.6771 7.24859 7.30356 10.622 7.30356 14.7837ZM20.9116 6.94982C20.9115 7.2981 21.0146 7.63859 21.208 7.92825C21.4014 8.21791 21.6763 8.44372 21.9981 8.57713C22.3198 8.71054 22.6739 8.74555 23.0155 8.67774C23.3571 8.60993 23.6709 8.44235 23.9173 8.19618C24.1637 7.95001 24.3315 7.63631 24.3996 7.29476C24.4677 6.9532 24.433 6.59912 24.2998 6.27731C24.1667 5.95549 23.9411 5.68038 23.6516 5.48677C23.362 5.29316 23.0216 5.18975 22.6733 5.18961H22.6726C22.2058 5.18983 21.7581 5.37533 21.4279 5.70536C21.0977 6.0354 20.912 6.48299 20.9116 6.94982V6.94982ZM8.91029 26.7282C7.47955 26.663 6.70189 26.4247 6.1851 26.2234C5.49996 25.9567 5.01111 25.639 4.49714 25.1257C3.98317 24.6125 3.66502 24.1241 3.39946 23.439C3.198 22.9225 2.95968 22.1446 2.89465 20.714C2.8235 19.1672 2.8093 18.7025 2.8093 14.7838C2.8093 10.865 2.82468 10.4017 2.89465 8.85361C2.9598 7.42292 3.19988 6.64659 3.39946 6.12853C3.66619 5.44342 3.98387 4.95459 4.49714 4.44064C5.01041 3.92669 5.49879 3.60855 6.1851 3.343C6.70166 3.14155 7.47955 2.90324 8.91029 2.83821C10.4571 2.76706 10.9218 2.75286 14.8389 2.75286C18.7561 2.75286 19.2212 2.76824 20.7693 2.83821C22.2001 2.90336 22.9764 3.14343 23.4945 3.343C24.1797 3.60855 24.6685 3.92739 25.1825 4.44064C25.6965 4.95389 26.0134 5.44342 26.2802 6.12853C26.4816 6.64507 26.7199 7.42292 26.785 8.85361C26.8561 10.4017 26.8703 10.865 26.8703 14.7838C26.8703 18.7025 26.8561 19.1659 26.785 20.714C26.7198 22.1446 26.4803 22.9223 26.2802 23.439C26.0134 24.1241 25.6958 24.613 25.1825 25.1257C24.6692 25.6385 24.1797 25.9567 23.4945 26.2234C22.978 26.4248 22.2001 26.6631 20.7693 26.7282C19.2225 26.7993 18.7578 26.8135 14.8389 26.8135C10.92 26.8135 10.4567 26.7993 8.91029 26.7282V26.7282ZM8.78878 0.198242C7.22655 0.269383 6.15904 0.517085 5.22678 0.879834C4.26129 1.25444 3.44396 1.757 2.62721 2.57242C1.81047 3.38785 1.30917 4.20644 0.934552 5.17189C0.571789 6.1047 0.324077 7.17158 0.252934 8.73375C0.180616 10.2984 0.164062 10.7986 0.164062 14.7837C0.164062 18.7687 0.180616 19.2689 0.252934 20.8336C0.324077 22.3959 0.571789 23.4626 0.934552 24.3954C1.30917 25.3603 1.81058 26.1798 2.62721 26.9949C3.44384 27.81 4.26129 28.3118 5.22678 28.6875C6.1608 29.0502 7.22655 29.2979 8.78878 29.3691C10.3543 29.4402 10.8537 29.4579 14.8389 29.4579C18.8242 29.4579 19.3244 29.4414 20.8891 29.3691C22.4514 29.2979 23.5182 29.0502 24.4511 28.6875C25.416 28.3118 26.2339 27.8103 27.0507 26.9949C27.8674 26.1795 28.3676 25.3603 28.7433 24.3954C29.1061 23.4626 29.355 22.3957 29.4249 20.8336C29.4961 19.2678 29.5126 18.7687 29.5126 14.7837C29.5126 10.7986 29.4961 10.2984 29.4249 8.73375C29.3538 7.17146 29.1061 6.10411 28.7433 5.17189C28.3676 4.20702 27.8661 3.38914 27.0507 2.57242C26.2352 1.75571 25.416 1.25444 24.4523 0.879834C23.5182 0.517085 22.4513 0.268209 20.8903 0.198242C19.3256 0.127102 18.8253 0.109375 14.8401 0.109375C10.8549 0.109375 10.3543 0.125928 8.78878 0.198242Z" fill="white"/>
</svg>
