<svg width="31" height="25" viewBox="0 0 31 25" fill="none" xmlns="http://www.w3.org/2000/svg">
<path d="M7.97266 14.183L11.1948 23.1014C11.1948 23.1014 11.5976 23.9358 12.029 23.9358C12.4604 23.9358 18.8764 17.2612 18.8764 17.2612L26.0111 3.48047L8.08763 11.8808L7.97266 14.183Z" fill="#C8DAEA"/>
<path d="M12.2426 16.4727L11.6241 23.0464C11.6241 23.0464 11.3652 25.0606 13.379 23.0464C15.3928 21.0321 17.3204 19.4789 17.3204 19.4789" fill="#A9C6D8"/>
<path d="M8.02821 14.5019L1.40016 12.3424C1.40016 12.3424 0.608039 12.021 0.863103 11.2922C0.91561 11.142 1.02153 11.0141 1.33838 10.7943C2.80698 9.77069 28.5209 0.528402 28.5209 0.528402C28.5209 0.528402 29.247 0.283748 29.6752 0.446473C29.7811 0.479264 29.8764 0.539606 29.9514 0.621324C30.0263 0.703042 30.0782 0.803203 30.1018 0.911564C30.148 1.10296 30.1674 1.29987 30.1593 1.4966C30.1572 1.6668 30.1366 1.82454 30.121 2.07191C29.9644 4.59879 25.2777 23.4577 25.2777 23.4577C25.2777 23.4577 24.9973 24.5612 23.9927 24.599C23.7458 24.607 23.4998 24.5652 23.2694 24.4761C23.0391 24.3869 22.829 24.2524 22.6517 24.0803C20.6803 22.3845 13.8662 17.8051 12.3605 16.798C12.3265 16.7748 12.2979 16.7447 12.2766 16.7095C12.2553 16.6744 12.2417 16.6351 12.2369 16.5943C12.2158 16.4881 12.3313 16.3566 12.3313 16.3566C12.3313 16.3566 24.1964 5.81006 24.5121 4.7029C24.5365 4.61712 24.4442 4.5748 24.3202 4.61237C23.5321 4.90229 9.87092 13.5294 8.36317 14.4816C8.25463 14.5144 8.13992 14.5214 8.02821 14.5019Z" fill="white"/>
</svg>
