<svg width="65" height="77" viewBox="0 0 65 77" fill="none" xmlns="http://www.w3.org/2000/svg">
<path d="M32.5 27.7469C39.659 27.7469 45.4625 21.9832 45.4625 14.8734C45.4625 7.76367 39.659 2 32.5 2C25.341 2 19.5375 7.76367 19.5375 14.8734C19.5375 21.9832 25.341 27.7469 32.5 27.7469ZM32.5 27.7469C39.9426 27.7469 46.6056 31.0573 51.0812 36.275M32.5 27.7469C25.0575 27.7469 18.3944 31.0573 13.9189 36.275M56.9 44.4066V34.1079L32.5 43.195M32.5 43.195V75M32.5 43.195L8.1 34.1079V44.4066M32.5 75L56.9 65.9129V55.0083M32.5 75L8.1 65.9129V55.0083M57.6625 55.0083H55.375C54.5329 55.0083 53.85 54.3301 53.85 53.4938V45.9212C53.85 45.0848 54.5329 44.4066 55.375 44.4066H57.6625C60.6103 44.4066 63 46.7799 63 49.7075C63 52.635 60.6103 55.0083 57.6625 55.0083ZM7.3375 55.0083H9.625C10.4671 55.0083 11.15 54.3301 11.15 53.4938V45.9212C11.15 45.0848 10.4671 44.4066 9.625 44.4066H7.3375C4.38968 44.4066 2 46.7799 2 49.7075C2 52.635 4.38968 55.0083 7.3375 55.0083Z" stroke="url(#paint0_linear_0_536)" stroke-width="3" stroke-miterlimit="10" stroke-linecap="round" stroke-linejoin="round"/>
<defs>
<linearGradient id="paint0_linear_0_536" x1="32.6109" y1="2" x2="32.6109" y2="75" gradientUnits="userSpaceOnUse">
<stop stop-color="#426F98"/>
<stop offset="0.065" stop-color="#40709C"/>
<stop offset="0.94" stop-color="#305487"/>
<stop offset="1" stop-color="#476FA7"/>
</linearGradient>
</defs>
</svg>
