<svg width="77" height="77" viewBox="0 0 77 77" fill="none" xmlns="http://www.w3.org/2000/svg">
<path d="M58.1482 56.6632L65.4803 43.9659C66.7369 41.7894 65.9905 39.0063 63.8133 37.7509C61.6372 36.4963 58.8558 37.2429 57.601 39.4189L51.3486 50.2603C50.5767 51.5988 49.5865 52.7989 48.4191 53.8111C46.7792 55.2328 45.4641 56.9903 44.5628 58.9647C43.6615 60.939 43.195 63.084 43.195 65.2543V75H64.3983V68.9419L73.7622 52.8898C74.5728 51.5 75 49.9199 75 48.3109V20.4772C75 19.6409 74.3219 18.9627 73.4855 18.9627C69.3033 18.9625 65.9129 22.3529 65.9129 26.5351V40.4542M18.8518 56.6632L11.5197 43.9659C10.2631 41.7894 11.0094 39.0063 13.1867 37.7509C15.3628 36.4963 18.1442 37.2429 19.399 39.4189L25.6514 50.2603C26.4233 51.5988 27.4134 52.7989 28.5809 53.8111C30.2208 55.2328 31.5359 56.9903 32.4372 58.9647C33.3385 60.939 33.805 63.084 33.805 65.2543V75H12.6017V68.9419L3.23782 52.8898C2.42715 51.5 1.99999 49.9199 2 48.3109V20.4772C2 19.6409 2.67805 18.9627 3.51452 18.9627C7.69673 18.9625 11.0871 22.3529 11.0871 26.5351V40.4542M50.6162 33.6935C50.6162 28.7365 46.5977 24.7178 41.6405 24.7178H35.3595C30.4023 24.7178 26.3838 28.7365 26.3838 33.6935M45.3153 17.9025C45.3153 21.6665 42.264 24.7178 38.5 24.7178C34.736 24.7178 31.6846 21.6665 31.6846 17.9025C31.6846 14.1384 34.736 11.0871 38.5 11.0871C42.264 11.0871 45.3153 14.1384 45.3153 17.9025ZM56.6743 20.1743C56.6743 30.2116 48.5373 38.3485 38.5 38.3485C28.4627 38.3485 20.3257 30.2116 20.3257 20.1743C20.3257 10.1369 28.4627 2 38.5 2C48.5373 2 56.6743 10.1369 56.6743 20.1743Z" stroke="url(#paint0_linear_0_529)" stroke-width="3" stroke-miterlimit="10" stroke-linecap="round" stroke-linejoin="round"/>
<defs>
<linearGradient id="paint0_linear_0_529" x1="38.6327" y1="2" x2="38.6327" y2="75" gradientUnits="userSpaceOnUse">
<stop stop-color="#426F98"/>
<stop offset="0.065" stop-color="#40709C"/>
<stop offset="0.94" stop-color="#305487"/>
<stop offset="1" stop-color="#476FA7"/>
</linearGradient>
</defs>
</svg>
