<svg width="72" height="77" viewBox="0 0 72 77" fill="none" xmlns="http://www.w3.org/2000/svg">
<path d="M49.9116 70.4561H65.9125C68.4115 70.4561 70.4561 68.4115 70.4561 65.9126V20.1752M70.4561 20.1752H2M70.4561 20.1752V11.0874C70.4561 8.58849 68.4115 6.54388 65.9125 6.54388H6.54357C4.04461 6.54388 2 8.58849 2 11.0874L2 20.1752M2 20.1752V65.9126C2 68.4115 4.04461 70.4561 6.54357 70.4561H22.5445M36.2281 11.0868V2M21.0821 11.0868V2M51.374 11.0868V2M41.068 45.548C40.7569 45.3143 38.09 43.0449 34.5787 44.1025C31.3545 45.0739 30.9035 48.7919 33.2358 50.3125C33.2358 50.3125 35.525 51.3338 38.0637 52.2702C44.1754 54.5247 41.5427 60.4371 36.6227 60.4371C34.1591 60.4371 31.1764 58.4573 30.8397 57.9771M35.9832 43.8251V40.6203M36.2281 63.6418V60.4371M59.0969 52.131C59.0969 64.7614 48.8583 75 36.2281 75C23.598 75 13.3594 64.7614 13.3594 52.131C13.3594 39.5008 23.598 29.2623 36.2281 29.2623C48.8583 29.2623 59.0969 39.5008 59.0969 52.131Z" stroke="url(#paint0_linear_0_533)" stroke-width="3" stroke-miterlimit="10" stroke-linecap="round" stroke-linejoin="round"/>
<defs>
<linearGradient id="paint0_linear_0_533" x1="36.3525" y1="2" x2="36.3525" y2="75" gradientUnits="userSpaceOnUse">
<stop stop-color="#426F98"/>
<stop offset="0.065" stop-color="#40709C"/>
<stop offset="0.94" stop-color="#305487"/>
<stop offset="1" stop-color="#476FA7"/>
</linearGradient>
</defs>
</svg>
