<svg width="77" height="77" viewBox="0 0 77 77" fill="none" xmlns="http://www.w3.org/2000/svg">
<path d="M38.5 19.0334L52.2605 24.7347M38.5 19.0334L24.7395 24.7347M38.5 19.0334C38.5 19.0334 39.0961 18.442 40.0086 17.5234C46.3838 11.1456 55.9833 9.23897 64.3053 12.6895C67.7609 21.0212 65.8505 30.6122 59.4752 36.99C58.974 37.495 58.4712 37.9984 57.9666 38.5M38.5 19.0334C38.5 19.0334 37.9039 18.442 36.9914 17.5234C30.6161 11.1456 21.0166 9.23897 12.6946 12.6895C9.23911 21.0212 11.1495 30.6122 17.5248 36.99C18.4373 37.9086 19.0334 38.5 19.0334 38.5M52.2605 24.7347L57.9666 38.5M52.2605 24.7347L52.2605 22.5993C52.2605 13.5814 46.8341 5.45054 38.5 2C30.1659 5.45054 24.7395 13.5814 24.7395 22.5993L24.7395 24.7347M52.2605 24.7347L54.4017 24.7347C63.4172 24.7347 71.5446 30.1683 75 38.5C71.5446 46.8317 63.4172 52.2641 54.4017 52.2641L52.2605 52.2643M57.9666 38.5L52.2605 52.2643M57.9666 38.5C57.9666 38.5 58.5627 39.0901 59.4752 40.0098C65.8505 46.3864 67.7609 55.9774 64.3053 64.3091C55.9833 67.7595 46.3838 65.853 40.0086 59.4764C39.0961 58.5567 38.5 57.9666 38.5 57.9666M52.2605 52.2643L38.5 57.9666M52.2605 52.2643L52.2605 54.3993C52.2605 63.4172 46.8341 71.5482 38.5 75C30.1659 71.5482 24.7395 63.4172 24.7395 54.3993L24.7395 52.2643M38.5 57.9666L24.7395 52.2643M38.5 57.9666C38.5 57.9666 37.9039 58.5567 36.9914 59.4764C30.6161 65.853 21.0166 67.7595 12.6946 64.3091C9.23911 55.9774 11.1495 46.3864 17.5248 40.0098C18.4373 39.0901 19.0334 38.5 19.0334 38.5M24.7395 52.2643L19.0334 38.5M24.7395 52.2643L22.5983 52.2641C13.5828 52.2641 5.45538 46.8317 2 38.5C5.45538 30.1683 13.5828 24.7347 22.5983 24.7347L24.7395 24.7347M19.0334 38.5L24.7395 24.7347M38.5 31.2C42.5273 31.2 45.8 34.4705 45.8 38.5C45.8 42.5285 42.5273 45.8 38.5 45.8C34.4727 45.8 31.2 42.5285 31.2 38.5C31.2 34.4705 34.4727 31.2 38.5 31.2Z" stroke="url(#paint0_linear_0_543)" stroke-width="3" stroke-miterlimit="10" stroke-linecap="round" stroke-linejoin="round"/>
<defs>
<linearGradient id="paint0_linear_0_543" x1="38.5" y1="2" x2="38.5" y2="75" gradientUnits="userSpaceOnUse">
<stop stop-color="#1A85AC"/>
<stop offset="1" stop-color="#0B3646"/>
</linearGradient>
</defs>
</svg>
