<svg width="17" height="22" viewBox="0 0 17 22" fill="none" xmlns="http://www.w3.org/2000/svg">
<path d="M14.0417 9.05273H13.0417V7.72461C13.0417 7.07878 12.9167 6.47461 12.6667 5.91211C12.4272 5.33919 12.0964 4.8418 11.6746 4.41992C11.2527 3.99805 10.7553 3.66732 10.1824 3.42773C9.61987 3.17773 9.01571 3.05273 8.36987 3.05273C7.72404 3.05273 7.11987 3.17773 6.55737 3.42773C5.98446 3.66732 5.48706 3.99805 5.06519 4.41992C4.64331 4.8418 4.31258 5.33919 4.073 5.91211C3.823 6.47461 3.698 7.07878 3.698 7.72461V9.05273H2.698C2.60425 9.05273 2.52612 9.08398 2.46362 9.14648C2.40112 9.20898 2.36987 9.28711 2.36987 9.38086V17.7246C2.36987 18.0892 2.50008 18.4017 2.7605 18.6621C3.02091 18.9225 3.33341 19.0527 3.698 19.0527H13.0417C13.4063 19.0527 13.7188 18.9225 13.9792 18.6621C14.2397 18.4017 14.3699 18.0892 14.3699 17.7246V9.38086C14.3699 9.28711 14.3386 9.20898 14.2761 9.14648C14.2136 9.08398 14.1355 9.05273 14.0417 9.05273ZM9.36987 16.0215C9.36987 16.0215 9.36987 16.0241 9.36987 16.0293C9.36987 16.0345 9.36987 16.0423 9.36987 16.0527C9.36987 16.1465 9.33862 16.2246 9.27612 16.2871C9.21362 16.3496 9.1355 16.3809 9.04175 16.3809H7.698C7.60425 16.3809 7.52612 16.3496 7.46362 16.2871C7.40112 16.2246 7.36987 16.1465 7.36987 16.0527C7.36987 16.0423 7.36987 16.0345 7.36987 16.0293C7.36987 16.0241 7.36987 16.0215 7.36987 16.0215L7.58862 14.1309C7.41154 14.0059 7.27612 13.8496 7.18237 13.6621C7.08862 13.4746 7.04175 13.2715 7.04175 13.0527C7.04175 12.6882 7.17196 12.3757 7.43237 12.1152C7.69279 11.8548 8.00529 11.7246 8.36987 11.7246C8.73446 11.7246 9.04696 11.8548 9.30737 12.1152C9.56779 12.3757 9.698 12.6882 9.698 13.0527C9.698 13.2715 9.65112 13.4746 9.55737 13.6621C9.46362 13.8496 9.32821 14.0059 9.15112 14.1309L9.36987 16.0215ZM11.0417 9.05273H5.698V7.72461C5.698 6.98503 5.95841 6.35482 6.47925 5.83398C7.00008 5.31315 7.63029 5.05273 8.36987 5.05273C9.10946 5.05273 9.73966 5.31315 10.2605 5.83398C10.7813 6.35482 11.0417 6.98503 11.0417 7.72461V9.05273Z" fill="black"/>
</svg>
